<?xml version="1.0" encoding="utf-8"?>
<!-- Generator: Adobe Illustrator 19.0.0, SVG Export Plug-In . SVG Version: 6.00 Build 0)  -->
<svg version="1.1" id="Ebene_1" xmlns="http://www.w3.org/2000/svg" xmlns:xlink="http://www.w3.org/1999/xlink" x="0px" y="0px"
	 viewBox="0 0 145 54" style="enable-background:new 0 0 145 54;" xml:space="preserve">
<style type="text/css">
	.st0{fill:#0A79B4;}
</style>
<g id="phpBB__x28_Main_x29_">
	<g id="XMLID_150_">
		<path id="XMLID_164_" class="st0" d="M26.7,24.8c0,2.4-0.3,4.5-0.8,6.5c-0.5,2-1.3,3.7-2.3,5.1c-1,1.5-2.3,2.6-3.8,3.4
			c-1.5,0.8-3.3,1.2-5.2,1.2c-1.5,0-2.9-0.4-4-1.2C9.3,39,8.4,38,7.7,36.7v13H5.6c-0.6,0-1.2-0.1-1.7-0.4c-0.6-0.2-1.1-0.6-1.5-1
			c-0.4-0.4-0.8-1-1-1.6C1.1,46.1,1,45.4,1,44.6V26.8c0-2.4,0.3-4.7,0.8-6.7c0.5-2,1.3-3.8,2.4-5.2c1.1-1.5,2.5-2.6,4.2-3.4
			c1.7-0.8,3.7-1.2,6.1-1.2c1.8,0,3.5,0.4,5,1.2c1.5,0.8,2.8,1.9,3.9,3.2c1.1,1.3,1.9,2.9,2.5,4.6C26.4,21.2,26.7,23,26.7,24.8z
			 M19.8,26.7c0-3.5-0.5-6-1.6-7.6c-1.1-1.6-2.7-2.3-4.8-2.3c-1.9,0-3.3,0.8-4.3,2.4c-1,1.6-1.5,3.6-1.5,6.2c0,2.9,0.6,5.2,1.8,6.8
			c1.2,1.6,2.8,2.4,4.8,2.4c1.6,0,3-0.7,4-2.2C19.3,31,19.8,29.1,19.8,26.7z"/>
		<path id="XMLID_162_" class="st0" d="M52.9,40.4c-1.4,0-2.5-0.4-3.3-1.3c-0.8-0.8-1.2-2.1-1.2-3.6v-12c0-1.2-0.1-2.2-0.4-3.1
			c-0.3-0.9-0.7-1.5-1.2-2.1c-0.5-0.5-1.1-0.9-1.7-1.2c-0.7-0.3-1.3-0.4-2.1-0.4c-0.5,0-1.1,0.1-1.7,0.4c-0.6,0.2-1.1,0.6-1.6,1.2
			c-0.5,0.5-0.9,1.3-1.2,2.1c-0.3,0.9-0.5,2-0.5,3.3v16.7h-2.2c-1.6,0-2.7-0.4-3.5-1.3c-0.7-0.9-1.1-2.1-1.1-3.6V1.2h2.1
			c1.6,0,2.8,0.4,3.5,1.3c0.8,0.9,1.2,2,1.2,3.4l0,8.4c0.2-0.4,0.6-0.9,1-1.3c0.4-0.5,0.9-0.9,1.4-1.3c0.5-0.4,1-0.7,1.7-1
			c0.6-0.3,1.2-0.4,1.9-0.4c3.5,0,6.2,1.1,8.2,3.3c1.9,2.2,2.9,5.4,2.9,9.6v17.2H52.9z"/>
		<path id="XMLID_159_" class="st0" d="M86.5,24.8c0,2.4-0.3,4.5-0.8,6.5c-0.5,2-1.3,3.7-2.3,5.1c-1,1.5-2.3,2.6-3.8,3.4
			c-1.5,0.8-3.3,1.2-5.2,1.2c-1.5,0-2.8-0.4-4-1.2c-1.2-0.8-2.1-1.9-2.8-3.1v13h-2.1c-0.6,0-1.2-0.1-1.7-0.4c-0.6-0.2-1.1-0.6-1.5-1
			c-0.4-0.4-0.8-1-1-1.6c-0.3-0.6-0.4-1.3-0.4-2.1V26.8c0-2.4,0.3-4.7,0.8-6.7c0.5-2,1.3-3.8,2.4-5.2c1.1-1.5,2.5-2.6,4.2-3.4
			c1.7-0.8,3.7-1.2,6.1-1.2c1.8,0,3.5,0.4,5,1.2c1.5,0.8,2.8,1.9,3.9,3.2c1.1,1.3,1.9,2.9,2.5,4.6C86.2,21.2,86.5,23,86.5,24.8z
			 M79.6,26.7c0-3.5-0.5-6-1.6-7.6c-1.1-1.6-2.7-2.3-4.8-2.3c-1.9,0-3.3,0.8-4.3,2.4c-1,1.6-1.5,3.6-1.5,6.2c0,2.9,0.6,5.2,1.8,6.8
			c1.2,1.6,2.8,2.4,4.8,2.4c1.6,0,3-0.7,4-2.2C79.1,31,79.6,29.1,79.6,26.7z"/>
		<path id="XMLID_155_" class="st0" d="M115.9,28.8c0,1.9-0.3,3.6-1,5c-0.6,1.5-1.5,2.7-2.6,3.7c-1.1,1-2.3,1.8-3.8,2.3
			c-1.4,0.5-2.9,0.8-4.5,0.8h-3.7c-6.4,0-9.6-3-9.6-8.9V4.6c0.4-0.1,1-0.3,1.7-0.5c0.7-0.2,1.5-0.4,2.4-0.6c0.8-0.2,1.7-0.3,2.6-0.4
			c0.9-0.1,1.7-0.2,2.4-0.2h4.2c1.6,0,3.1,0.2,4.5,0.7c1.4,0.5,2.6,1.1,3.6,2c1,0.9,1.8,1.9,2.3,3.1c0.5,1.2,0.8,2.6,0.8,4.1
			c0,2.1-0.5,3.8-1.4,5.1c-1,1.3-2.3,2.3-4,2.8c0.9,0.3,1.7,0.7,2.4,1.3c0.7,0.6,1.4,1.2,1.9,2c0.6,0.7,1,1.6,1.3,2.4
			C115.7,27.2,115.9,28,115.9,28.8z M108.4,13.4c0-0.8-0.2-1.5-0.5-2c-0.3-0.6-0.7-1-1.2-1.3c-0.5-0.3-1.1-0.6-1.7-0.7
			c-0.6-0.1-1.3-0.2-1.9-0.2h-2.6c-0.4,0-0.9,0-1.4,0.1c-0.5,0.1-1,0.2-1.5,0.2V18h5.3c1.5,0,2.8-0.4,3.9-1.1
			C107.9,16.2,108.4,15,108.4,13.4z M109,29.1c0-2-0.5-3.4-1.4-4.2c-0.9-0.8-2.4-1.1-4.4-1.1h-5.5v7.7c0,0.7,0.3,1.2,0.9,1.7
			c0.6,0.5,1.3,0.7,2.2,0.7h2.8c1.9,0,3.3-0.4,4.2-1.3C108.5,31.6,109,30.5,109,29.1z"/>
		<path id="XMLID_151_" class="st0" d="M145.3,28.8c0,1.9-0.3,3.6-1,5c-0.6,1.5-1.5,2.7-2.6,3.7c-1.1,1-2.3,1.8-3.8,2.3
			c-1.4,0.5-2.9,0.8-4.5,0.8h-3.7c-6.4,0-9.6-3-9.6-8.9V4.6c0.4-0.1,1-0.3,1.7-0.5c0.7-0.2,1.5-0.4,2.4-0.6c0.8-0.2,1.7-0.3,2.6-0.4
			c0.9-0.1,1.7-0.2,2.4-0.2h4.2c1.6,0,3.1,0.2,4.5,0.7c1.4,0.5,2.6,1.1,3.6,2c1,0.9,1.8,1.9,2.3,3.1c0.6,1.2,0.8,2.6,0.8,4.1
			c0,2.1-0.5,3.8-1.4,5.1c-1,1.3-2.3,2.3-4,2.8c0.9,0.3,1.7,0.7,2.4,1.3c0.7,0.6,1.4,1.2,1.9,2c0.6,0.7,1,1.6,1.3,2.4
			C145.1,27.2,145.3,28,145.3,28.8z M137.8,13.4c0-0.8-0.2-1.5-0.5-2c-0.3-0.6-0.7-1-1.2-1.3c-0.5-0.3-1.1-0.6-1.7-0.7
			c-0.6-0.1-1.3-0.2-1.9-0.2H130c-0.4,0-0.9,0-1.4,0.1c-0.5,0.1-1,0.2-1.5,0.2V18h5.3c1.5,0,2.8-0.4,3.9-1.1
			C137.3,16.2,137.8,15,137.8,13.4z M138.4,29.1c0-2-0.5-3.4-1.4-4.2c-1-0.8-2.4-1.1-4.4-1.1h-5.5v7.7c0,0.7,0.3,1.2,0.8,1.7
			c0.6,0.5,1.3,0.7,2.2,0.7h2.8c1.9,0,3.3-0.4,4.2-1.3C137.9,31.6,138.4,30.5,138.4,29.1z"/>
	</g>
</g>
<g id="communities__x28_Old_Highlight_x29_">
	<path id="XMLID_46_" class="st0" d="M76.7,47.7c-0.1-0.4-0.2-0.7-0.5-0.9c-0.3-0.2-0.6-0.3-1-0.3c-0.2,0-0.4,0-0.6,0.1
		c-0.2,0.1-0.4,0.2-0.6,0.3c-0.2,0.2-0.3,0.4-0.4,0.7c-0.1,0.3-0.2,0.7-0.2,1.2c0,0.3,0,0.5,0.1,0.8c0.1,0.3,0.2,0.5,0.3,0.7
		c0.1,0.2,0.3,0.4,0.5,0.5c0.2,0.1,0.5,0.2,0.8,0.2c0.4,0,0.7-0.1,1-0.4c0.3-0.3,0.4-0.6,0.5-1.1H78c-0.1,0.8-0.4,1.4-0.9,1.9
		c-0.5,0.4-1.1,0.7-2,0.7c-0.5,0-0.9-0.1-1.3-0.2c-0.4-0.2-0.7-0.4-1-0.7c-0.3-0.3-0.5-0.6-0.6-1c-0.1-0.4-0.2-0.8-0.2-1.3
		c0-0.5,0.1-0.9,0.2-1.3c0.1-0.4,0.3-0.8,0.6-1.1c0.3-0.3,0.6-0.5,1-0.7c0.4-0.2,0.8-0.3,1.4-0.3c0.4,0,0.7,0,1,0.1
		c0.3,0.1,0.6,0.2,0.9,0.4c0.3,0.2,0.5,0.4,0.6,0.7c0.2,0.3,0.3,0.6,0.3,1H76.7z"/>
	<path id="XMLID_43_" class="st0" d="M81.9,52.1c-0.5,0-1-0.1-1.3-0.2c-0.4-0.2-0.7-0.4-1-0.7c-0.3-0.3-0.5-0.6-0.6-1
		c-0.1-0.4-0.2-0.9-0.2-1.3c0-0.5,0.1-0.9,0.2-1.3c0.1-0.4,0.3-0.8,0.6-1c0.3-0.3,0.6-0.5,1-0.7c0.4-0.2,0.8-0.2,1.3-0.2
		c0.5,0,1,0.1,1.3,0.2c0.4,0.2,0.7,0.4,1,0.7c0.3,0.3,0.5,0.6,0.6,1c0.1,0.4,0.2,0.8,0.2,1.3c0,0.5-0.1,0.9-0.2,1.3
		c-0.1,0.4-0.3,0.8-0.6,1c-0.3,0.3-0.6,0.5-1,0.7C82.8,52,82.4,52.1,81.9,52.1z M81.9,51c0.3,0,0.6-0.1,0.8-0.2
		c0.2-0.1,0.4-0.3,0.6-0.5c0.1-0.2,0.3-0.4,0.3-0.7c0.1-0.3,0.1-0.5,0.1-0.8c0-0.3,0-0.5-0.1-0.8c-0.1-0.3-0.2-0.5-0.3-0.7
		c-0.1-0.2-0.3-0.4-0.6-0.5c-0.2-0.1-0.5-0.2-0.8-0.2c-0.3,0-0.6,0.1-0.8,0.2c-0.2,0.1-0.4,0.3-0.6,0.5c-0.1,0.2-0.3,0.4-0.3,0.7
		c-0.1,0.3-0.1,0.5-0.1,0.8c0,0.3,0,0.5,0.1,0.8c0.1,0.3,0.2,0.5,0.3,0.7c0.1,0.2,0.3,0.4,0.6,0.5C81.3,50.9,81.6,51,81.9,51z"/>
	<path id="XMLID_41_" class="st0" d="M86,45.6h1.3v0.9h0c0.1-0.2,0.2-0.3,0.3-0.4c0.1-0.1,0.3-0.2,0.4-0.3c0.2-0.1,0.3-0.2,0.5-0.2
		c0.2-0.1,0.4-0.1,0.7-0.1c0.4,0,0.7,0.1,1.1,0.3c0.3,0.2,0.6,0.4,0.7,0.8c0.2-0.3,0.5-0.6,0.8-0.8c0.3-0.2,0.7-0.3,1.2-0.3
		c0.7,0,1.2,0.2,1.6,0.5c0.4,0.3,0.6,0.9,0.6,1.6v4.3h-1.4v-3.7c0-0.3,0-0.5,0-0.7c0-0.2-0.1-0.4-0.1-0.5c-0.1-0.2-0.2-0.3-0.3-0.3
		c-0.2-0.1-0.4-0.1-0.6-0.1c-0.5,0-0.8,0.1-1,0.4c-0.2,0.3-0.3,0.7-0.3,1.2v3.7h-1.4v-4c0-0.4-0.1-0.8-0.2-1
		c-0.2-0.2-0.4-0.3-0.9-0.3c-0.2,0-0.4,0-0.5,0.1c-0.2,0.1-0.3,0.2-0.4,0.3c-0.1,0.1-0.2,0.3-0.3,0.5c-0.1,0.2-0.1,0.4-0.1,0.7v3.7
		H86V45.6z"/>
	<path id="XMLID_39_" class="st0" d="M96.4,45.6h1.3v0.9h0c0.1-0.2,0.2-0.3,0.3-0.4s0.3-0.2,0.4-0.3c0.2-0.1,0.3-0.2,0.5-0.2
		c0.2-0.1,0.4-0.1,0.7-0.1c0.4,0,0.7,0.1,1.1,0.3c0.3,0.2,0.6,0.4,0.7,0.8c0.2-0.3,0.5-0.6,0.8-0.8c0.3-0.2,0.7-0.3,1.2-0.3
		c0.7,0,1.2,0.2,1.6,0.5c0.4,0.3,0.6,0.9,0.6,1.6v4.3h-1.4v-3.7c0-0.3,0-0.5,0-0.7c0-0.2-0.1-0.4-0.1-0.5c-0.1-0.2-0.2-0.3-0.3-0.3
		c-0.2-0.1-0.4-0.1-0.6-0.1c-0.5,0-0.8,0.1-1,0.4c-0.2,0.3-0.3,0.7-0.3,1.2v3.7h-1.4v-4c0-0.4-0.1-0.8-0.2-1
		c-0.2-0.2-0.4-0.3-0.9-0.3c-0.2,0-0.4,0-0.5,0.1c-0.2,0.1-0.3,0.2-0.4,0.3c-0.1,0.1-0.2,0.3-0.3,0.5c-0.1,0.2-0.1,0.4-0.1,0.7v3.7
		h-1.4V45.6z"/>
	<path id="XMLID_37_" class="st0" d="M112.4,51.9H111V51h0c-0.2,0.3-0.4,0.6-0.8,0.8c-0.3,0.2-0.7,0.3-1,0.3c-0.8,0-1.4-0.2-1.8-0.6
		c-0.4-0.4-0.6-1-0.6-1.9v-4h1.4v3.9c0,0.6,0.1,0.9,0.3,1.2c0.2,0.2,0.5,0.3,0.9,0.3c0.3,0,0.5,0,0.7-0.1c0.2-0.1,0.4-0.2,0.5-0.4
		c0.1-0.2,0.2-0.3,0.3-0.5c0.1-0.2,0.1-0.4,0.1-0.7v-3.7h1.4V51.9z"/>
	<path id="XMLID_35_" class="st0" d="M113.6,45.6h1.3v0.9l0,0c0.2-0.3,0.5-0.6,0.8-0.8c0.3-0.2,0.7-0.3,1.1-0.3
		c0.7,0,1.2,0.2,1.6,0.5c0.4,0.4,0.6,0.9,0.6,1.6v4.3h-1.4v-4c0-0.5-0.1-0.9-0.3-1.1c-0.2-0.2-0.5-0.3-0.9-0.3c-0.2,0-0.4,0-0.6,0.1
		c-0.2,0.1-0.3,0.2-0.5,0.4c-0.1,0.2-0.2,0.3-0.3,0.5c-0.1,0.2-0.1,0.4-0.1,0.6v3.7h-1.4V45.6z"/>
	<path id="XMLID_32_" class="st0" d="M120.5,43.2h1.4v1.3h-1.4V43.2z M120.5,45.6h1.4v6.3h-1.4V45.6z"/>
	<path id="XMLID_30_" class="st0" d="M122.5,45.6h1v-1.9h1.4v1.9h1.3v1H125V50c0,0.1,0,0.3,0,0.4c0,0.1,0,0.2,0.1,0.3
		c0,0.1,0.1,0.1,0.2,0.2c0.1,0,0.2,0.1,0.4,0.1c0.1,0,0.2,0,0.3,0s0.2,0,0.3,0v1.1c-0.2,0-0.3,0-0.5,0c-0.1,0-0.3,0-0.5,0
		c-0.4,0-0.7,0-0.9-0.1c-0.2-0.1-0.4-0.2-0.5-0.3c-0.1-0.1-0.2-0.3-0.3-0.5c0-0.2-0.1-0.4-0.1-0.7v-3.7h-1V45.6z"/>
	<path id="XMLID_27_" class="st0" d="M127.1,43.2h1.4v1.3h-1.4V43.2z M127.1,45.6h1.4v6.3h-1.4V45.6z"/>
	<path id="XMLID_24_" class="st0" d="M130.8,49.1c0,0.2,0,0.5,0.1,0.7c0.1,0.2,0.2,0.4,0.3,0.6c0.1,0.2,0.3,0.3,0.5,0.4
		c0.2,0.1,0.5,0.2,0.8,0.2c0.4,0,0.7-0.1,1-0.3c0.2-0.2,0.4-0.4,0.6-0.8h1.3c-0.1,0.3-0.2,0.6-0.4,0.9c-0.2,0.3-0.4,0.5-0.6,0.7
		c-0.3,0.2-0.5,0.3-0.8,0.4c-0.3,0.1-0.6,0.1-1,0.1c-0.5,0-0.9-0.1-1.3-0.2c-0.4-0.2-0.7-0.4-1-0.7c-0.3-0.3-0.5-0.6-0.6-1
		c-0.1-0.4-0.2-0.9-0.2-1.3c0-0.4,0.1-0.9,0.2-1.3c0.1-0.4,0.3-0.8,0.6-1.1c0.3-0.3,0.6-0.5,1-0.7c0.4-0.2,0.8-0.3,1.3-0.3
		c0.5,0,0.9,0.1,1.3,0.3c0.4,0.2,0.7,0.5,1,0.8c0.3,0.3,0.4,0.7,0.6,1.2c0.1,0.4,0.1,0.9,0.1,1.4H130.8z M134.1,48.2
		c0-0.2-0.1-0.4-0.1-0.6c-0.1-0.2-0.2-0.4-0.3-0.5c-0.1-0.2-0.3-0.3-0.5-0.4c-0.2-0.1-0.4-0.1-0.6-0.1c-0.2,0-0.5,0-0.7,0.1
		c-0.2,0.1-0.4,0.2-0.5,0.4c-0.1,0.2-0.3,0.3-0.3,0.5c-0.1,0.2-0.1,0.4-0.1,0.7H134.1z"/>
	<path id="XMLID_22_" class="st0" d="M137.4,49.9c0,0.4,0.2,0.7,0.5,0.9c0.3,0.2,0.6,0.2,1,0.2c0.1,0,0.3,0,0.4,0
		c0.2,0,0.3-0.1,0.5-0.1c0.1-0.1,0.3-0.1,0.4-0.2c0.1-0.1,0.1-0.3,0.1-0.4c0-0.2-0.1-0.3-0.2-0.4c-0.1-0.1-0.3-0.2-0.5-0.3
		c-0.2-0.1-0.4-0.1-0.7-0.2c-0.2,0-0.5-0.1-0.7-0.2c-0.3-0.1-0.5-0.1-0.7-0.2c-0.2-0.1-0.5-0.2-0.6-0.3c-0.2-0.1-0.3-0.3-0.5-0.5
		c-0.1-0.2-0.2-0.5-0.2-0.8c0-0.3,0.1-0.6,0.2-0.9c0.2-0.2,0.4-0.4,0.6-0.6c0.3-0.1,0.5-0.2,0.9-0.3c0.3-0.1,0.6-0.1,0.9-0.1
		c0.3,0,0.6,0,0.9,0.1c0.3,0.1,0.6,0.2,0.8,0.3c0.2,0.2,0.4,0.4,0.6,0.6c0.2,0.2,0.3,0.5,0.3,0.9h-1.4c-0.1-0.3-0.2-0.6-0.5-0.7
		c-0.2-0.1-0.5-0.2-0.8-0.2c-0.1,0-0.2,0-0.3,0c-0.1,0-0.3,0-0.4,0.1c-0.1,0-0.2,0.1-0.3,0.2c-0.1,0.1-0.1,0.2-0.1,0.3
		c0,0.2,0.1,0.3,0.2,0.4c0.1,0.1,0.3,0.2,0.5,0.3c0.2,0.1,0.4,0.1,0.7,0.2c0.2,0,0.5,0.1,0.8,0.2c0.3,0.1,0.5,0.1,0.7,0.2
		c0.2,0.1,0.5,0.2,0.7,0.3c0.2,0.1,0.3,0.3,0.5,0.5c0.1,0.2,0.2,0.5,0.2,0.8c0,0.4-0.1,0.7-0.3,1c-0.2,0.3-0.4,0.5-0.7,0.6
		c-0.3,0.2-0.6,0.3-0.9,0.4c-0.3,0.1-0.7,0.1-1,0.1c-0.4,0-0.8,0-1.1-0.1c-0.3-0.1-0.6-0.2-0.9-0.4c-0.2-0.2-0.4-0.4-0.6-0.7
		c-0.1-0.3-0.2-0.6-0.2-1H137.4z"/>
</g>
<g id="creating__x28_Old_Highlight_x29_">
	<path id="XMLID_20_" class="st0" d="M18.4,47.8c-0.1-0.4-0.2-0.7-0.5-0.9s-0.6-0.3-1-0.3c-0.2,0-0.4,0-0.6,0.1
		c-0.2,0.1-0.4,0.2-0.6,0.3c-0.2,0.2-0.3,0.4-0.4,0.7c-0.1,0.3-0.2,0.7-0.2,1.2c0,0.3,0,0.5,0.1,0.8c0.1,0.3,0.2,0.5,0.3,0.7
		c0.1,0.2,0.3,0.4,0.5,0.5c0.2,0.1,0.5,0.2,0.8,0.2c0.4,0,0.7-0.1,1-0.4c0.3-0.3,0.4-0.6,0.5-1.1h1.4c-0.1,0.8-0.4,1.4-0.9,1.9
		c-0.5,0.4-1.1,0.7-2,0.7c-0.5,0-0.9-0.1-1.3-0.2c-0.4-0.2-0.7-0.4-1-0.7c-0.3-0.3-0.5-0.6-0.6-1c-0.1-0.4-0.2-0.8-0.2-1.3
		c0-0.5,0.1-0.9,0.2-1.3c0.1-0.4,0.3-0.8,0.6-1.1c0.3-0.3,0.6-0.5,1-0.7c0.4-0.2,0.8-0.3,1.4-0.3c0.4,0,0.7,0,1,0.1
		c0.3,0.1,0.6,0.2,0.9,0.4c0.3,0.2,0.5,0.4,0.6,0.7c0.2,0.3,0.3,0.6,0.3,1H18.4z"/>
	<path id="XMLID_18_" class="st0" d="M20.8,45.7h1.3v1.2h0c0-0.2,0.1-0.3,0.2-0.5c0.1-0.2,0.3-0.3,0.4-0.4c0.2-0.1,0.4-0.2,0.6-0.3
		c0.2-0.1,0.4-0.1,0.6-0.1c0.2,0,0.3,0,0.3,0c0.1,0,0.1,0,0.2,0v1.3c-0.1,0-0.2,0-0.3,0c-0.1,0-0.2,0-0.3,0c-0.2,0-0.5,0-0.7,0.1
		c-0.2,0.1-0.4,0.2-0.5,0.4c-0.2,0.2-0.3,0.4-0.4,0.7c-0.1,0.3-0.1,0.6-0.1,0.9v3h-1.4V45.7z"/>
	<path id="XMLID_15_" class="st0" d="M25.8,49.2c0,0.2,0,0.5,0.1,0.7c0.1,0.2,0.2,0.4,0.3,0.6c0.1,0.2,0.3,0.3,0.5,0.4
		C27,51,27.2,51,27.5,51c0.4,0,0.7-0.1,1-0.3c0.2-0.2,0.4-0.4,0.6-0.8h1.3c-0.1,0.3-0.2,0.6-0.4,0.9c-0.2,0.3-0.4,0.5-0.6,0.7
		c-0.3,0.2-0.5,0.3-0.8,0.4c-0.3,0.1-0.6,0.1-1,0.1c-0.5,0-0.9-0.1-1.3-0.2c-0.4-0.2-0.7-0.4-1-0.7c-0.3-0.3-0.5-0.6-0.6-1
		c-0.1-0.4-0.2-0.9-0.2-1.3c0-0.4,0.1-0.9,0.2-1.3c0.1-0.4,0.3-0.8,0.6-1.1c0.3-0.3,0.6-0.5,1-0.7c0.4-0.2,0.8-0.3,1.3-0.3
		c0.5,0,0.9,0.1,1.3,0.3c0.4,0.2,0.7,0.5,1,0.8c0.3,0.3,0.4,0.7,0.6,1.2c0.1,0.4,0.1,0.9,0.1,1.4H25.8z M29.1,48.3
		c0-0.2-0.1-0.4-0.1-0.6c-0.1-0.2-0.2-0.4-0.3-0.5c-0.1-0.2-0.3-0.3-0.5-0.4c-0.2-0.1-0.4-0.1-0.6-0.1c-0.2,0-0.5,0-0.7,0.1
		c-0.2,0.1-0.4,0.2-0.5,0.4c-0.1,0.2-0.3,0.3-0.3,0.5c-0.1,0.2-0.1,0.4-0.1,0.7H29.1z"/>
	<path id="XMLID_12_" class="st0" d="M36.7,50.6c0,0.2,0,0.3,0.1,0.4c0,0.1,0.1,0.1,0.3,0.1c0,0,0.1,0,0.1,0c0.1,0,0.1,0,0.2,0v1
		c0,0-0.1,0-0.2,0.1c-0.1,0-0.2,0-0.2,0.1c-0.1,0-0.2,0-0.2,0c-0.1,0-0.2,0-0.2,0c-0.3,0-0.5-0.1-0.7-0.2c-0.2-0.1-0.3-0.3-0.4-0.6
		c-0.3,0.3-0.6,0.5-1,0.6c-0.4,0.1-0.8,0.2-1.2,0.2c-0.3,0-0.6,0-0.8-0.1c-0.3-0.1-0.5-0.2-0.7-0.3c-0.2-0.2-0.4-0.3-0.5-0.6
		c-0.1-0.2-0.2-0.5-0.2-0.8c0-0.4,0.1-0.7,0.2-1c0.1-0.2,0.3-0.4,0.6-0.6c0.2-0.1,0.5-0.2,0.8-0.3c0.3-0.1,0.6-0.1,0.9-0.1
		c0.3,0,0.5-0.1,0.7-0.1c0.2,0,0.4-0.1,0.6-0.1c0.2,0,0.3-0.1,0.4-0.2c0.1-0.1,0.2-0.3,0.2-0.5c0-0.2,0-0.3-0.1-0.4
		c-0.1-0.1-0.2-0.2-0.3-0.3c-0.1-0.1-0.3-0.1-0.4-0.1c-0.2,0-0.3,0-0.4,0c-0.4,0-0.7,0.1-1,0.2c-0.3,0.2-0.4,0.4-0.4,0.8h-1.4
		c0-0.4,0.1-0.7,0.3-1c0.2-0.3,0.4-0.5,0.7-0.6c0.3-0.2,0.6-0.3,0.9-0.3c0.3-0.1,0.7-0.1,1-0.1c0.3,0,0.6,0,0.9,0.1
		c0.3,0.1,0.6,0.2,0.8,0.3c0.2,0.1,0.4,0.3,0.6,0.6c0.1,0.2,0.2,0.5,0.2,0.8V50.6z M35.3,48.8c-0.2,0.1-0.5,0.2-0.8,0.2
		c-0.3,0-0.6,0.1-0.9,0.1c-0.1,0-0.3,0.1-0.4,0.1c-0.1,0-0.3,0.1-0.4,0.2c-0.1,0.1-0.2,0.2-0.2,0.3c-0.1,0.1-0.1,0.3-0.1,0.5
		c0,0.2,0,0.3,0.1,0.4c0.1,0.1,0.2,0.2,0.3,0.2c0.1,0.1,0.3,0.1,0.4,0.1c0.2,0,0.3,0,0.4,0c0.2,0,0.3,0,0.5-0.1
		c0.2,0,0.3-0.1,0.5-0.2c0.2-0.1,0.3-0.2,0.4-0.4c0.1-0.2,0.2-0.3,0.2-0.6V48.8z"/>
	<path id="XMLID_10_" class="st0" d="M37.5,45.7h1v-1.9h1.4v1.9h1.3v1h-1.3v3.4c0,0.1,0,0.3,0,0.4c0,0.1,0,0.2,0.1,0.3
		c0,0.1,0.1,0.1,0.2,0.2c0.1,0,0.2,0.1,0.4,0.1c0.1,0,0.2,0,0.3,0c0.1,0,0.2,0,0.3,0V52c-0.2,0-0.3,0-0.5,0c-0.1,0-0.3,0-0.5,0
		c-0.4,0-0.7,0-0.9-0.1c-0.2-0.1-0.4-0.2-0.5-0.3c-0.1-0.1-0.2-0.3-0.3-0.5c0-0.2-0.1-0.4-0.1-0.7v-3.7h-1V45.7z"/>
	<path id="XMLID_7_" class="st0" d="M42.1,43.3h1.4v1.3h-1.4V43.3z M42.1,45.7h1.4V52h-1.4V45.7z"/>
	<path id="XMLID_5_" class="st0" d="M44.9,45.7h1.3v0.9l0,0c0.2-0.3,0.5-0.6,0.8-0.8c0.3-0.2,0.7-0.3,1.1-0.3c0.7,0,1.2,0.2,1.6,0.5
		c0.4,0.4,0.6,0.9,0.6,1.6V52h-1.4v-4c0-0.5-0.1-0.9-0.3-1.1c-0.2-0.2-0.5-0.3-0.9-0.3c-0.2,0-0.4,0-0.6,0.1
		c-0.2,0.1-0.3,0.2-0.5,0.4c-0.1,0.2-0.2,0.3-0.3,0.5c-0.1,0.2-0.1,0.4-0.1,0.6V52h-1.4V45.7z"/>
	<path id="XMLID_2_" class="st0" d="M57.6,51.6c0,1-0.3,1.7-0.8,2.1c-0.5,0.5-1.3,0.7-2.3,0.7c-0.3,0-0.6,0-1-0.1
		c-0.3-0.1-0.6-0.2-0.9-0.3c-0.3-0.2-0.5-0.4-0.7-0.6c-0.2-0.3-0.3-0.6-0.3-0.9h1.4c0,0.2,0.1,0.4,0.2,0.5c0.1,0.1,0.2,0.2,0.3,0.3
		c0.1,0.1,0.3,0.1,0.4,0.1c0.2,0,0.3,0,0.5,0c0.6,0,1-0.1,1.2-0.4c0.3-0.3,0.4-0.7,0.4-1.2v-1h0c-0.2,0.3-0.5,0.6-0.8,0.8
		c-0.3,0.2-0.7,0.3-1.1,0.3c-0.5,0-0.9-0.1-1.3-0.3c-0.4-0.2-0.6-0.4-0.9-0.7c-0.2-0.3-0.4-0.7-0.5-1.1c-0.1-0.4-0.2-0.8-0.2-1.3
		c0-0.4,0.1-0.8,0.2-1.2c0.1-0.4,0.3-0.7,0.6-1s0.5-0.5,0.9-0.7c0.4-0.2,0.8-0.3,1.2-0.3c0.4,0,0.8,0.1,1.1,0.2
		c0.3,0.2,0.6,0.4,0.8,0.8h0v-0.9h1.4V51.6z M54.6,50.9c0.3,0,0.6-0.1,0.8-0.2c0.2-0.1,0.4-0.3,0.5-0.5c0.1-0.2,0.2-0.4,0.3-0.7
		c0.1-0.3,0.1-0.5,0.1-0.8c0-0.3,0-0.5-0.1-0.8c-0.1-0.3-0.2-0.5-0.3-0.7c-0.1-0.2-0.3-0.3-0.5-0.5c-0.2-0.1-0.5-0.2-0.8-0.2
		c-0.3,0-0.6,0.1-0.8,0.2c-0.2,0.1-0.4,0.3-0.5,0.5C53.1,47.5,53,47.7,53,48c-0.1,0.3-0.1,0.5-0.1,0.8c0,0.3,0,0.5,0.1,0.8
		c0.1,0.2,0.2,0.5,0.3,0.7c0.1,0.2,0.3,0.4,0.5,0.5C54,50.8,54.3,50.9,54.6,50.9z"/>
</g>
</svg>
